<?xml version="1.0" encoding="UTF-8" standalone="no"?>
<!-- Created with Inkscape (http://www.inkscape.org/) -->

<svg
   version="1.1"
   id="svg2"
   width="1044"
   height="432"
   viewBox="0 0 1044 432"
   sodipodi:docname="logo.ai"
   xmlns:inkscape="http://www.inkscape.org/namespaces/inkscape"
   xmlns:sodipodi="http://sodipodi.sourceforge.net/DTD/sodipodi-0.dtd"
   xmlns="http://www.w3.org/2000/svg"
   xmlns:svg="http://www.w3.org/2000/svg">
  <defs
     id="defs6">
    <clipPath
       clipPathUnits="userSpaceOnUse"
       id="clipPath44">
      <path
         d="M 0,324 H 783 V 0 H 0 Z"
         id="path42" />
    </clipPath>
  </defs>
  <sodipodi:namedview
     id="namedview4"
     pagecolor="#ffffff"
     bordercolor="#000000"
     borderopacity="0.25"
     inkscape:showpageshadow="2"
     inkscape:pageopacity="0.0"
     inkscape:pagecheckerboard="0"
     inkscape:deskcolor="#d1d1d1"
     showgrid="false"
     inkscape:zoom="1.2212644"
     inkscape:cx="350.45647"
     inkscape:cy="215.76"
     inkscape:window-width="1419"
     inkscape:window-height="1205"
     inkscape:window-x="55"
     inkscape:window-y="25"
     inkscape:window-maximized="0"
     inkscape:current-layer="g10" />
  <g
     id="g10"
     inkscape:groupmode="layer"
     inkscape:label="Page 1"
     transform="matrix(1.3333333,0,0,-1.3333333,0,432)">
    <text
       xml:space="preserve"
       transform="matrix(1,0,0,-0.9669581,314.0435,173.937)"
       style="font-variant:normal;font-weight:bold;font-stretch:normal;font-size:62.1756px;font-family:'Euphemia UCAS';-inkscape-font-specification:EuphemiaUCAS-Bold;writing-mode:lr-tb;fill:#000000;fill-opacity:1;fill-rule:nonzero;stroke:none"
       id="text14"><tspan
         x="0 44.828609 85.926682 130.75528 186.34027 222.58865 267.41727"
         y="0"
         sodipodi:role="line"
         id="tspan12">ARAMEAN</tspan></text>
    <text
       xml:space="preserve"
       transform="matrix(1,0,0,-0.96695851,314.0435,113.937)"
       style="font-variant:normal;font-weight:bold;font-stretch:normal;font-size:49.7405px;font-family:'Euphemia UCAS';-inkscape-font-specification:EuphemiaUCAS-Bold;writing-mode:lr-tb;fill:#000000;fill-opacity:1;fill-rule:nonzero;stroke:none"
       id="text18"><tspan
         x="0 20.443346 62.87199 101.8188 140.2682 160.71156 199.13609 243.00722 281.4566"
         y="0"
         sodipodi:role="line"
         id="tspan16">INSTITUTE</tspan></text>
    <path
       d="m 107.171,90.843 h 140 v 151.333 h -140 z"
       style="fill:#ff0000;fill-opacity:1;fill-rule:nonzero;stroke:none"
       id="path20" />
    <g
       id="g22"
       transform="translate(188.1255,150.9653)">
      <path
         d="M 0,0 -21.88,0.019 V -4.9 L 0,-4.952 Z M -22.697,0.842 H 0.82 V -5.71 h -23.517 z"
         style="fill:#ffff00;fill-opacity:1;fill-rule:nonzero;stroke:none"
         id="path24" />
    </g>
    <g
       id="g26"
       transform="translate(182.8569,151.2554)">
      <path
         d="M 0,0 V -5.581"
         style="fill:none;stroke:#ffff00;stroke-width:0.8;stroke-linecap:butt;stroke-linejoin:miter;stroke-miterlimit:10;stroke-dasharray:none;stroke-opacity:1"
         id="path28" />
    </g>
    <g
       id="g30"
       transform="translate(177.1797,151.2607)">
      <path
         d="M 0,0 V -5.413"
         style="fill:none;stroke:#ffff00;stroke-width:0.8;stroke-linecap:butt;stroke-linejoin:miter;stroke-miterlimit:10;stroke-dasharray:none;stroke-opacity:1"
         id="path32" />
    </g>
    <g
       id="g34"
       transform="translate(171.5161,151.2661)">
      <path
         d="M 0,0 V -5.403"
         style="fill:none;stroke:#ffff00;stroke-width:0.8;stroke-linecap:butt;stroke-linejoin:miter;stroke-miterlimit:10;stroke-dasharray:none;stroke-opacity:1"
         id="path36" />
    </g>
    <g
       id="g38">
      <g
         id="g40"
         clip-path="url(#clipPath44)">
        <g
           id="g46"
           transform="translate(170.4634,147.9307)">
          <path
             d="m 0,0 c -0.233,0.006 -0.459,0.137 -0.658,0.252 h -0.001 c -0.042,0.025 -0.062,0.073 -0.05,0.122 l 0.075,0.321 C -0.626,0.727 -0.568,0.77 -0.568,0.77 -0.33,0.873 -0.06,0.99 0.173,0.983 0.255,0.981 0.078,-0.002 0,0 M -1.407,1.242 C -1.251,0.985 -1.076,0.694 -1.072,0.42 -1.069,0.188 -1.542,0.006 -1.748,-0.051 -1.955,0.001 -2.432,0.2 -2.435,0.432 -2.438,0.706 -2.269,0.973 -2.12,1.233 l 0.137,0.069 0.412,0.002 z M 0.11,1.356 C -0.08,1.171 -0.772,1.029 -0.809,1.075 l -0.262,0.334 c -0.025,0.032 -0.033,0.074 -0.021,0.113 v 10e-4 c 0.085,0.28 0.182,0.597 0.371,0.783 0.063,0.061 0.909,-0.873 0.831,-0.95 m -1.47,-2.558 c -0.01,-0.093 -1.368,0.015 -1.359,0.105 0.027,0.274 0.228,0.553 0.406,0.799 v 0 c 0.022,0.031 0.058,0.049 0.096,0.048 l 0.467,-0.008 c 0.063,-0.001 0.417,-0.67 0.39,-0.944 M -2.722,0.72 C -3.011,0.69 -3.338,0.657 -3.589,0.775 -3.693,0.824 -3.195,2.076 -3.112,2.037 -2.861,1.918 -2.654,1.632 -2.472,1.38 V 1.379 c 0.033,-0.044 0.04,-0.101 0.021,-0.151 L -2.611,0.804 C -2.628,0.757 -2.671,0.725 -2.721,0.72 Z m 1.869,-1.954 c -0.219,0.2 -0.334,0.527 -0.436,0.816 v 0.001 c -0.021,0.061 -0.003,0.128 0.047,0.171 l 0.326,0.28 c 0.033,0.028 0.123,0.026 0.123,0.026 0.311,-0.087 0.663,-0.187 0.882,-0.388 0.077,-0.07 -0.869,-0.973 -0.942,-0.906 m -1.671,1.207 c -0.119,-0.231 -0.253,-0.493 -0.458,-0.634 -0.069,-0.047 -0.741,0.827 -0.667,0.877 0.205,0.141 0.508,0.181 0.776,0.217 h 0.001 c 0.033,0.004 0.066,-0.008 0.087,-0.032 l 0.242,-0.278 c 0.037,-0.042 0.044,-0.101 0.019,-0.149 0,0 0,-0.001 0,-0.001 m 0.035,2.473 c 0,0.092 1.362,0.092 1.362,0 0,-0.274 -0.173,-0.567 -0.325,-0.826 v 0 C -1.479,1.575 -1.526,1.547 -1.578,1.547 h -0.46 c -0.051,0 -0.1,0.028 -0.127,0.073 v 0 c 0,0 -0.324,0.552 -0.324,0.826"
             style="fill:#ffff00;fill-opacity:1;fill-rule:nonzero;stroke:none"
             id="path48" />
        </g>
        <g
           id="g50"
           transform="translate(185.4263,147.9082)">
          <path
             d="M 0,0 C -0.205,0.219 -0.437,0.468 -0.497,0.735 -0.548,0.961 -0.176,1.272 0.066,1.336 0.283,1.378 0.788,1.231 0.838,1.005 0.898,0.738 0.788,0.441 0.696,0.156 L 0.624,0.092 0.083,-0.022 Z M 2.106,1.273 C 1.898,1.084 1.166,0.963 1.131,1.014 L 0.875,1.381 C 0.85,1.417 0.844,1.462 0.858,1.503 H 0.859 C 0.963,1.798 1.081,2.132 1.289,2.322 1.358,2.385 2.192,1.352 2.106,1.273 M 1.25,-1.052 c 0.011,-0.094 -1.337,-0.284 -1.349,-0.194 -0.033,0.273 0.102,0.589 0.222,0.868 v 0 c 0.015,0.035 0.045,0.061 0.083,0.068 l 0.458,0.094 C 0.726,-0.203 1.216,-0.779 1.25,-1.052 M -0.847,0.595 C -1.135,0.551 -1.46,0.502 -1.716,0.608 -1.823,0.652 -1.386,1.927 -1.301,1.892 -1.046,1.786 -0.825,1.51 -0.63,1.267 V 1.266 c 0.034,-0.042 0.045,-0.099 0.028,-0.15 L -0.741,0.685 C -0.756,0.637 -0.797,0.603 -0.847,0.595 Z M 1.706,-0.55 C 1.448,-0.433 1.235,-0.159 1.047,0.083 1.006,0.135 0.999,0.206 1.026,0.264 l 0.18,0.381 C 1.224,0.683 1.302,0.711 1.302,0.711 1.598,0.734 1.934,0.76 2.191,0.643 2.282,0.602 1.791,-0.589 1.706,-0.55 m -2.078,0.322 c -0.065,-0.298 -0.138,-0.636 -0.316,-0.85 -0.06,-0.071 -0.996,0.794 -0.932,0.87 0.179,0.214 0.488,0.332 0.761,0.436 v 0.001 c 0.034,0.012 0.072,0.006 0.1,-0.017 l 0.328,-0.268 c 0.05,-0.042 0.073,-0.108 0.059,-0.171 z M -0.843,2.238 C -0.863,2.327 0.466,2.624 0.486,2.535 0.546,2.268 0.441,1.944 0.35,1.658 H 0.349 C 0.333,1.608 0.292,1.571 0.242,1.56 L -0.206,1.459 c -0.051,-0.011 -0.104,0.005 -0.14,0.043 0,0 0,0 0,0 0,0 -0.438,0.468 -0.497,0.736"
             style="fill:#ffff00;fill-opacity:1;fill-rule:nonzero;stroke:none"
             id="path52" />
        </g>
        <g
           id="g54"
           transform="translate(179.6113,148.1094)">
          <path
             d="M 0,0 C -0.154,0.257 -0.255,0.465 -0.258,0.74 -0.26,0.972 0.214,1.152 0.42,1.208 0.626,1.155 1.103,0.955 1.105,0.723 1.107,0.449 1.08,0.325 0.929,0.065 l -0.23,-0.213 -0.546,0.03 -0.079,0.035 z M 2.4,0.609 C 2.158,0.467 1.417,0.503 1.393,0.56 L 1.22,0.973 C 1.203,1.013 1.206,1.059 1.229,1.095 V 1.096 C 1.393,1.362 1.579,1.664 1.822,1.806 1.903,1.853 2.501,0.668 2.4,0.609 m -1.338,-1.95 c -0.009,-0.094 -1.354,-0.14 -1.346,-0.05 0.024,0.274 0.223,0.555 0.398,0.802 v 0 c 0.022,0.031 0.058,0.05 0.096,0.049 L 0.677,-0.544 C 0.741,-0.545 1.086,-1.067 1.062,-1.341 M -0.6,0.603 c -0.298,-0.016 -0.637,-0.035 -0.874,0.108 -0.099,0.06 0.596,1.402 0.675,1.355 0.237,-0.144 0.404,-0.468 0.552,-0.754 L -0.246,1.311 C -0.22,1.261 -0.221,1.199 -0.248,1.145 L -0.474,0.69 C -0.499,0.64 -0.547,0.606 -0.599,0.604 Z M 1.666,-1.04 c -0.228,0.169 -0.378,0.482 -0.511,0.758 -0.029,0.059 -0.022,0.13 0.018,0.181 L 1.429,0.233 C 1.455,0.267 1.536,0.278 1.536,0.278 1.831,0.238 2.164,0.193 2.392,0.025 2.472,-0.035 1.742,-1.096 1.666,-1.04 m -1.914,0.722 c -0.126,-0.278 -0.268,-0.593 -0.488,-0.765 -0.073,-0.057 -0.806,0.986 -0.727,1.047 0.219,0.171 0.546,0.222 0.835,0.266 h 0.001 c 0.035,0.006 0.071,-0.008 0.094,-0.037 l 0.263,-0.331 c 0.041,-0.051 0.049,-0.12 0.023,-0.179 z M -0.19,2.368 C -0.183,2.458 1.331,2.345 1.324,2.254 1.303,1.981 1.09,1.703 0.901,1.458 V 1.457 C 0.869,1.415 0.813,1.392 0.756,1.396 L 0.246,1.433 C 0.187,1.437 0.136,1.469 0.11,1.516 L 0.109,1.517 c 0,0 -0.319,0.577 -0.299,0.851"
             style="fill:#ffff00;fill-opacity:1;fill-rule:nonzero;stroke:none"
             id="path56" />
        </g>
        <g
           id="g58"
           transform="translate(175.9375,149.6865)">
          <path
             d="m 0,0 c -0.197,-0.19 -0.512,-0.281 -0.79,-0.361 v 0 c -0.059,-0.017 -0.123,0.002 -0.163,0.049 l -0.26,0.306 c -0.026,0.031 -0.022,0.111 -0.022,0.111 0.09,0.278 0.193,0.592 0.39,0.782 C -0.776,0.954 0.065,0.063 0,0 m -1.178,-0.646 c 0.137,-0.267 0.293,-0.569 0.277,-0.843 -0.014,-0.231 -0.546,-0.177 -0.755,-0.22 -0.617,0.094 -0.663,0.102 -0.604,0.326 0.08,0.3 0.203,0.529 0.37,0.778 l 0.378,0.235 z m 1.712,-0.767 c -0.254,-0.121 -1.017,-0.1 -1.036,-0.042 l -0.138,0.426 c -0.013,0.042 -0.006,0.087 0.02,0.122 h 0.001 c 0.186,0.252 0.473,0.458 0.651,0.657 0.084,0.04 0.608,-1.113 0.502,-1.163 M -1.015,-3.04 c -0.009,-0.094 -1.367,0.014 -1.359,0.105 0.027,0.273 0.228,0.552 0.406,0.798 v 10e-4 c 0.022,0.031 0.058,0.049 0.096,0.048 l 0.467,-0.008 c 0.063,-10e-4 0.417,-0.671 0.39,-0.944 m -1.681,1.942 c -0.29,-0.029 -0.617,-0.063 -0.867,0.056 -0.105,0.049 0.394,1.301 0.477,1.261 0.25,-0.118 0.457,-0.404 0.639,-0.656 l 10e-4,-0.001 c 0.031,-0.044 0.039,-0.101 0.02,-0.152 l -0.159,-0.423 c -0.018,-0.047 -0.061,-0.08 -0.111,-0.085 z m 2.279,-1.88 c -0.226,0.17 -0.374,0.484 -0.505,0.762 -0.028,0.059 -0.02,0.13 0.02,0.181 l 0.258,0.332 c 0.026,0.033 0.108,0.044 0.108,0.044 0.294,-0.042 0.627,-0.09 0.853,-0.26 0.08,-0.06 -0.659,-1.115 -0.734,-1.059 m -1.942,0.965 c -0.128,-0.277 -0.273,-0.59 -0.494,-0.759 -0.073,-0.057 -0.798,0.991 -0.719,1.052 0.221,0.169 0.549,0.217 0.838,0.259 v 0 c 0.036,0.005 0.072,-0.009 0.094,-0.038 l 0.261,-0.333 c 0.04,-0.051 0.048,-0.121 0.021,-0.18 z M -2.731,0.474 C -2.76,0.56 -1.467,0.99 -1.438,0.903 -1.352,0.643 -1.423,0.311 -1.486,0.017 V 0.016 c -0.011,-0.05 -0.048,-0.091 -0.097,-0.108 l -0.436,-0.145 c -0.049,-0.016 -0.104,-0.006 -0.143,0.029 v 0 c 0,0 -0.483,0.421 -0.569,0.682"
             style="fill:#ffff00;fill-opacity:1;fill-rule:nonzero;stroke:none"
             id="path60" />
        </g>
        <g
           id="g62"
           transform="translate(185.0479,171.0332)">
          <path
             d="m 0,0 c 0,-4.259 -3.522,-7.711 -7.868,-7.711 -4.345,0 -7.868,3.452 -7.868,7.711 0,4.259 3.523,7.712 7.868,7.712 C -3.522,7.712 0,4.259 0,0"
             style="fill:#ffffff;fill-opacity:1;fill-rule:nonzero;stroke:none"
             id="path64" />
        </g>
        <g
           id="g66"
           transform="translate(137.7515,172.2544)">
          <path
             d="M 0,0 5.101,1 6.064,0.608 1.416,-1.031 Z m 31.883,-8.855 1.181,1.941 0.793,-0.719 -1.129,-1.931 z m -41.923,-3.554 -3.294,2.799 10.866,5.325 2.607,-1.295 z m 7.433,-0.238 5.667,5.997 3.039,-0.621 -4.755,-4.967 z m 36.666,-1.492 1.048,2.79 0.94,-0.307 -0.84,-2.938 z m 0.064,3.552 1.044,2.108 0.775,-0.358 -0.919,-2.134 z m -25.465,7.235 4.763,3.018 1.696,-0.11 -4.367,-3.234 z M -1.875,-4.104 2.697,-2.169 4.94,-2.81 0.463,-5.251 Z m 28.031,-4.418 1.508,2.072 1.146,-0.588 -1.453,-1.911 z m 0.14,-3.829 1.277,2.837 1.221,-0.569 -1.041,-2.493 z m -29.426,-0.284 -6.563,0.06 10.168,6.833 2.213,-0.764 z m 39.629,1.283 0.647,2.048 0.704,-0.146 -0.436,-2.041 z m -21.28,3.847 2.481,2.588 1.666,-0.168 -2.206,-2.493 z m 2.54,-0.125 2.156,2.483 1.451,-0.138 -1.844,-2.397 z m -8.181,0.277 3.111,2.95 2.033,-0.225 -2.733,-2.84 z m 5.574,-4.554 2.567,3.89 1.879,-0.073 -2.369,-3.814 z m 2.548,0.021 2.29,3.696 1.841,-0.062 -2.147,-3.697 z m 4.746,4.06 1.632,2.18 1.411,-0.172 -1.608,-2.18 z m -0.182,-0.436 1.571,-0.192 -1.869,-3.625 -1.99,0.047 z m -7.007,8.123 c 0.802,-0.051 0,0 0.879,-0.069 0.296,-0.023 1.633,-0.177 2.081,-0.223 1.407,-0.145 2.416,-0.294 3.325,-0.439 1.512,-0.24 2.609,-0.386 3.094,-0.48 2.054,-0.395 1.533,-0.28 2.054,-0.395 1.299,-0.284 2.109,-0.553 2.109,-0.553 1.353,-0.396 1.84,-0.572 2.233,-0.672 0,0 -0.011,0 -0.052,0.511 l -0.013,0.61 c -10e-4,0.046 -10e-4,0.046 0.002,0.239 0.008,0.517 0.003,0.491 0.029,1.018 -0.001,-0.015 -0.023,-0.478 0.021,0.181 0.033,0.501 0.223,1.363 0.276,1.623 0,0 -0.381,0.225 -0.689,0.354 C 29.935,1.847 29.533,1.99 29.533,1.99 27.939,2.475 27.401,2.57 27.401,2.57 26.632,2.736 25.696,2.928 24.919,3.061 23.582,3.289 21.686,3.49 21.33,3.507 18.437,3.644 18.437,3.622 17.304,3.659 15.405,3.723 15.405,3.723 14.041,3.688 13.32,3.67 11.804,3.626 10.558,3.589 10.558,3.589 8.463,3.48 7.896,3.47 7.15,3.455 6.472,3.404 5.478,3.264 4.143,3.075 4.173,3.075 4.173,3.075 4.214,2.673 4.569,1.983 4.842,1.724 5.553,1.048 6.368,0.854 6.935,0.73 8.8,0.325 8.89,0.345 10.087,0.26 c 0.681,-0.048 1.383,-0.136 1.68,-0.159 0.708,-0.056 2.574,-0.177 2.574,-0.177 m 19.852,-14.619 1.426,-0.513 -0.088,-5.25 h -1.406 z m 3.703,-0.766 1.312,-0.039 v -4.958 H 37.833 Z M -1.581,1.806 -2.148,2.952 3.818,3.075 4.061,2.257 Z M -7.423,2.76 -2.486,2.892 -1.999,1.747 -7.107,1.329 Z M 4.183,1.958 4.819,1.259 -0.426,0.333 -1.344,1.461 Z m -19.434,0.583 7.485,0.249 0.303,-1.551 -9.006,-1.487 c 0,0 -0.07,1.445 -0.07,1.74 0,0.294 0.82,1.035 1.288,1.049 M -6.946,0.968 -1.706,1.42 -1.005,0.397 -5.859,-0.58 Z M 1.775,-1.239 6.633,0.469 8.001,0.162 3.487,-1.978 Z M 3.912,-2.104 8.433,0.04 10.476,-0.125 5.603,-2.543 Z m -9.513,1.107 4.811,1.094 1.296,-0.989 -4.868,-1.27 z m -10.881,0.42 9.139,1.526 1.018,-1.598 -9.732,-2.785 z m 22.625,-2.137 4.984,2.523 1.584,-0.124 -4.557,-2.85 z m 5.097,-1.114 4.372,3.286 1.695,-0.145 -4.232,-3.318 z m -15.267,1.345 4.749,1.333 1.613,-0.829 -4.57,-1.893 z m 17.659,-1.59 4.278,3.329 1.658,-0.217 -3.579,-3.317 z m 2.859,-0.246 3.669,3.262 1.732,-0.239 -3.482,-3.183 z m 2.4,-0.291 3.486,3.21 1.887,-0.275 -3.408,-3.114 z m 2.496,-0.26 3.359,3.086 1.577,-0.287 -2.915,-2.995 z m -37.361,1.035 9.848,2.946 1.316,-1.42 -10.547,-4.144 z m 39.795,-1.341 2.892,2.978 1.755,-0.466 -2.78,-2.757 z M 0.877,-5.387 5.444,-2.955 7.34,-3.437 2.947,-6.091 Z m 25.247,-0.144 2.789,2.755 1.667,-0.437 -3.038,-2.691 z M 3.429,-6.24 7.857,-3.579 9.908,-3.935 6.318,-6.839 Z m 24.458,0.188 3.123,2.801 0.351,-1.035 -2.121,-2.46 z m -21.09,-0.881 3.584,2.855 1.873,-0.228 -3.17,-2.959 z m -20.378,-2.353 -1.691,2.488 10.832,4.242 1.692,-1.478 z m 26.117,1.798 2.732,2.825 L 17.2,-4.8 14.619,-7.479 Z m 16.954,0.531 2.031,2.357 0.574,-0.923 -1.719,-2.059 z m -7.543,-0.801 -1.918,0.053 1.806,2.344 1.794,-0.159 z m 2.364,-0.356 1.591,2.171 1.417,-0.39 -1.485,-2.048 z m 6.334,0.25 1.622,1.999 0.579,-0.826 -1.24,-1.962 z m -2.96,-1.292 1.389,1.901 0.978,-0.662 -1.213,-1.782 z m 5.243,-0.62 1.192,2.001 0.821,-0.569 -1.078,-2.081 z m -3.807,-0.089 1.248,1.754 0.753,-0.579 -1.075,-1.828 z m 6.19,-1.186 0.891,2.093 0.696,-0.255 -0.758,-2.075 z m 3.791,1.445 0.688,0.031 0.153,-2.069 -1.026,0.02 z m -1.382,-1.924 0.418,2.019 0.724,-0.054 -0.242,-2.017 z m -7.438,0.801 1.106,1.778 0.882,-0.769 -0.966,-1.754 z m 1.221,-1.057 1.005,1.801 0.99,-0.715 -1.055,-2.118 z m -7.251,3.212 1.507,-0.264 -1.632,-3.373 -1.8,0.075 z m -11.884,-3.364 2.68,3.99 2.165,-0.062 -2.441,-3.91 z m 12.135,-0.311 1.6,3.273 1.164,-0.412 -1.299,-2.862 z m -15.158,0.242 2.859,4.118 2.434,-0.003 -2.766,-4.037 z m -0.095,4.242 2.494,-0.116 -2.84,-4.123 -2.905,-0.07 z m -7.42,-4.445 4.755,4.837 2.279,-0.319 -3.262,-4.36 z m 26.216,-0.424 0.955,2.342 1.017,-0.727 -0.82,-1.903 z m 4.65,-0.392 1.137,2.189 0.931,-0.436 -1.047,-2.581 z m -3.264,0.081 0.793,1.748 0.946,-0.764 -0.672,-1.491 z m 6.162,-1.737 0.814,2.941 0.973,-0.155 -0.651,-2.979 z m -4.862,1.135 0.603,1.41 0.87,-1.045 -0.056,-1.084 z m 6.476,-1.381 0.477,3.031 0.912,-0.061 -0.236,-3.039 z m 1.707,2.92 h 0.974 l 0.11,-2.926 c 0.002,-0.058 -0.03,-0.106 -0.07,-0.106 h -1.054 c -0.041,0 -0.073,0.048 -0.071,0.106 z m -2.905,-3.278 1.484,-0.19 -0.056,-4.982 -1.457,0.011 z m -3.776,-5.164 0.243,7.054 1.288,-1.024 -0.07,-6.038 z"
             style="fill:#ffff00;fill-opacity:1;fill-rule:nonzero;stroke:none"
             id="path68" />
        </g>
        <g
           id="g70"
           transform="translate(215.1753,171.2231)">
          <path
             d="m 0,0 -4.648,1.64 0.963,0.391 5.101,-1 z m -31.312,-8.533 -1.129,1.931 0.792,0.72 1.182,-1.942 z m 32.589,3.984 2.607,1.295 10.866,-5.325 -3.294,-2.798 z m -1.206,-6.658 -4.754,4.968 3.038,0.62 5.667,-5.997 z m -33.863,-2.356 -0.839,2.938 0.939,0.307 1.049,-2.789 z m 0.185,3.623 -0.92,2.134 0.776,0.358 1.044,-2.108 z m 24.273,7.293 -4.367,3.234 1.696,0.11 4.763,-3.018 z m 10.286,-1.573 -4.476,2.441 2.242,0.641 4.573,-1.935 z m -26.893,-3.698 -1.453,1.911 1.146,0.589 1.508,-2.073 z m -0.396,-3.626 -1.042,2.493 1.221,0.568 1.277,-2.837 z m 25.064,6.069 2.213,0.765 10.169,-6.834 -6.564,-0.06 z m -34.726,-4.984 -0.435,2.041 0.703,0.146 0.648,-2.049 z m 20.254,3.913 -2.206,2.492 1.666,0.168 2.482,-2.588 z m -2.362,-0.104 -1.844,2.397 1.451,0.137 2.157,-2.483 z m 7.534,0.213 -2.734,2.84 2.033,0.225 3.112,-2.949 z m -5.24,-4.436 -2.37,3.814 1.879,0.074 2.567,-3.89 z m -2.456,-0.044 -2.146,3.696 1.84,0.062 2.291,-3.696 z m -4.196,3.951 -1.608,2.179 1.41,0.173 1.632,-2.181 z m 3.905,-4.034 -1.991,-0.048 -1.868,3.625 1.571,0.192 z m 5.634,11.955 c 0,0 1.867,0.121 2.574,0.177 0.297,0.023 1,0.111 1.68,0.16 1.197,0.084 1.287,0.064 3.153,0.47 0.567,0.123 1.381,0.317 2.092,0.993 0.274,0.259 0.628,0.949 0.669,1.351 0,0 0.03,0 -1.304,0.189 -0.994,0.141 -1.672,0.191 -2.419,0.206 -0.567,0.011 -2.662,0.119 -2.662,0.119 -1.246,0.037 -2.762,0.082 -3.482,0.1 -1.365,0.034 -1.365,0.034 -3.263,-0.03 -1.133,-0.037 -1.134,-0.015 -4.026,-0.152 -0.356,-0.017 -2.253,-0.218 -3.589,-0.446 -0.777,-0.133 -1.713,-0.325 -2.483,-0.491 0,0 -0.537,-0.095 -2.131,-0.58 0,0 -0.402,-0.143 -1.074,-0.424 -0.307,-0.128 -0.688,-0.354 -0.688,-0.354 0.052,-0.26 0.242,-1.121 0.276,-1.622 0.044,-0.66 0.021,-0.197 0.02,-0.182 0.027,-0.526 0.022,-0.501 0.03,-1.018 0.002,-0.193 0.002,-0.193 0.002,-0.238 l -0.013,-0.611 c -0.042,-0.51 -0.052,-0.51 -0.052,-0.51 0.392,0.1 0.88,0.275 2.232,0.671 0,0 0.811,0.269 2.11,0.554 0.521,0.114 0,0 2.053,0.395 0.486,0.093 1.583,0.239 3.094,0.479 0.909,0.145 1.919,0.294 3.326,0.439 0.447,0.046 1.785,0.2 2.08,0.223 0.88,0.07 0.078,0.018 0.88,0.07 m -18.868,-20.32 h -1.406 l -0.089,5.251 1.427,0.512 z m -3.708,0 h -1.375 v 4.959 l 1.312,0.038 z M -2.646,3.289 -2.402,4.106 3.564,3.983 2.996,2.837 Z M 8.522,2.36 3.415,2.778 3.902,3.923 8.838,3.792 Z M 2.759,2.493 1.842,1.364 -3.403,2.29 l 0.636,0.7 z m 13.908,1.079 c 0.468,-0.013 1.288,-0.755 1.288,-1.049 0,-0.294 -0.07,-1.739 -0.07,-1.739 L 8.879,2.27 9.182,3.821 16.667,3.572 M 7.275,0.452 2.42,1.428 3.121,2.451 8.362,1.999 Z m -9.346,-1.398 -4.514,2.139 1.368,0.307 4.858,-1.708 z m -2.116,-0.566 -4.874,2.419 2.043,0.164 4.522,-2.143 z M 5.777,-1.13 0.91,0.14 2.206,1.128 7.017,0.035 Z M 17.473,-2.403 7.741,0.382 8.758,1.98 17.897,0.455 Z m -24.212,0.27 -4.556,2.849 1.584,0.124 4.984,-2.523 z m -4.921,-0.841 -4.231,3.319 1.695,0.145 4.372,-3.287 z m 15.311,0.134 -4.57,1.893 1.613,0.828 4.749,-1.333 z m -18.225,-0.407 -3.578,3.317 1.658,0.218 4.278,-3.33 z m -2.42,-0.2 -3.482,3.182 1.732,0.239 3.669,-3.262 z m -2.447,-0.31 -3.407,3.113 1.887,0.275 3.486,-3.21 z m -2.551,-0.278 -2.916,2.995 1.577,0.287 3.359,-3.085 z M 16.772,-5.421 6.225,-1.277 7.542,0.142 17.39,-2.804 Z m -41.045,1.031 -2.78,2.758 1.755,0.465 2.893,-2.978 z m 22.741,-0.67 -4.392,2.654 1.896,0.483 4.567,-2.432 z m -24.595,0.187 -3.037,2.691 1.667,0.437 2.789,-2.755 z m 21.225,-0.935 -3.591,2.905 2.052,0.355 4.428,-2.66 z m -22.922,0.094 -2.121,2.46 0.35,1.034 3.123,-2.801 z m 20.155,-0.52 -3.169,2.96 1.872,0.227 3.584,-2.855 z m 11.833,3.231 1.692,1.479 10.832,-4.243 -1.692,-2.487 z m -17.367,-3.444 -2.582,2.678 1.933,0.138 2.732,-2.826 z m -15.758,-0.103 -1.719,2.058 0.575,0.924 2.031,-2.357 z m 6.747,2.061 1.795,0.159 1.806,-2.344 -1.918,-0.053 z m -2.204,-2.861 -1.486,2.049 1.417,0.389 1.592,-2.171 z m -5.772,-0.272 -1.24,1.962 0.578,0.827 1.623,-2 z m 2.767,-1.045 -1.214,1.782 0.978,0.661 1.39,-1.901 z m -5.024,-0.727 -1.079,2.081 0.822,0.569 1.192,-2.001 z m 3.816,-0.092 -1.075,1.827 0.753,0.579 1.248,-1.753 z m -6.094,-0.77 -0.758,2.074 0.697,0.255 0.891,-2.093 z m -2.776,-0.336 -1.027,-0.02 0.154,2.068 0.687,-0.031 z m 0.297,0.041 -0.243,2.017 0.724,0.055 0.419,-2.02 z m 7.316,0.108 -0.966,1.754 0.882,0.769 1.106,-1.778 z m -1.139,-1.344 -1.055,2.119 0.989,0.714 1.005,-1.801 z m 10.115,0.683 -1.799,-0.076 -1.632,3.373 1.506,0.265 z m 7.555,0.215 -2.441,3.91 2.166,0.062 2.679,-3.989 z m -11.195,-0.33 -1.3,2.862 1.165,0.413 1.6,-3.273 z m 14.095,0.321 -2.766,4.037 2.435,0.004 2.858,-4.119 z m 5.874,-0.145 -2.906,0.07 -2.84,4.123 2.495,0.117 z m 0.397,0.022 -3.262,4.36 2.279,0.32 4.754,-4.838 z m -23.597,-0.87 -0.82,1.903 1.018,0.727 0.954,-2.342 z m -4.519,-0.931 -1.046,2.58 0.931,0.436 1.136,-2.189 z m 3.219,0.402 -0.672,1.49 0.945,0.764 0.794,-1.748 z m -6.231,-1.424 -0.651,2.979 0.973,0.155 0.813,-2.941 z m 4.58,0.609 -0.055,1.084 0.869,1.045 0.604,-1.41 z m -6.212,-0.73 -0.235,3.038 0.912,0.061 0.476,-3.03 z m -0.443,0.063 c 0.002,-0.058 -0.03,-0.107 -0.07,-0.107 h -1.054 c -0.041,0 -0.073,0.049 -0.07,0.107 l 0.11,2.925 h 0.973 z m 2.823,-5.514 -1.456,-0.011 -0.057,4.982 1.484,0.191 z m 2.287,-0.011 -0.07,6.038 1.287,1.024 0.244,-7.054 z"
             style="fill:#ffff00;fill-opacity:1;fill-rule:nonzero;stroke:none"
             id="path72" />
        </g>
      </g>
    </g>
  </g>
</svg>
