<svg id="svg548" xmlns="http://www.w3.org/2000/svg" width="1200" height="750" viewBox="0 0 1200 750"><title>syriac_aramean_tell_halaf_flag</title><rect width="1200" height="750" style="fill:red"/><g id="Lager_2" data-name="Lager 2"><path id="Border" d="M492.56,504.07H707.73v60H492.56Zm207.67,7.7L500,511.6v45l200.2.48Z" style="fill:#ff0"/><line x1="652.03" y1="509.12" x2="652.03" y2="560.18" style="fill:none;stroke:#ff0;stroke-miterlimit:10;stroke-width:7px"/><line x1="600.08" y1="509.07" x2="600.08" y2="558.59" style="fill:none;stroke:#ff0;stroke-miterlimit:10;stroke-width:7px"/><line x1="548.26" y1="509.02" x2="548.26" y2="558.46" style="fill:none;stroke:#ff0;stroke-miterlimit:10;stroke-width:7px"/><path d="M515.85,517.16c0-.83,12.47-.83,12.47,0,0,2.51-1.58,5.19-3,7.56h0a1.34,1.34,0,0,1-1.15.66H520a1.35,1.35,0,0,1-1.16-.66h0S515.85,519.66,515.85,517.16Zm-.32,22.63c-1.09,2.11-2.32,4.5-4.19,5.8-.62.43-6.77-7.56-6.1-8,1.88-1.29,4.65-1.66,7.1-2h0a.9.9,0,0,1,.8.29l2.21,2.54a1.21,1.21,0,0,1,.18,1.37Zm15.29,11c-2-1.84-3.06-4.83-4-7.47h0a1.43,1.43,0,0,1,.43-1.57l3-2.56a2.22,2.22,0,0,1,1.12-.24c2.84.8,6.07,1.71,8.07,3.55.7.68-8,8.94-8.62,8.33ZM513.72,533c-2.65.27-5.65.57-7.93-.51-1-.45,3.6-11.91,4.37-11.55,2.29,1.08,4.18,3.7,5.85,6h0a1.48,1.48,0,0,1,.19,1.39l-1.46,3.88a1.21,1.21,0,0,1-1,.77h0Zm12.45,17.58c-.08.86-12.51-.13-12.43-1,.25-2.5,2.08-5,3.71-7.3h0a1.06,1.06,0,0,1,.88-.44l4.27.08c.59,0,3.82,6.08,3.58,8.61Zm13.45-23.41c-1.73,1.7-8.07,3-8.4,2.57l-2.4-3a1.14,1.14,0,0,1-.2-1h0c.78-2.56,1.67-5.46,3.4-7.16.58-.7,8.33,7.84,7.61,8.55Zm-13.88,1c1.42,2.35,3,5,3.06,7.52,0,2.12-4.3,3.79-6.18,4.31-1.89-.48-6.26-2.3-6.29-4.42,0-2.51,1.52-5,2.88-7.34l1.25-.63h3.78l1.5.57Zm12.87,11.37c-2.13-.06-4.2-1.26-6-2.31h0a1,1,0,0,1-.46-1.11l.69-2.93c.07-.3.6-.69.6-.69,2.18-.94,4.65-2,6.78-2,.78.06-.89,9.06-1.59,9Z" style="fill:#ff0"/><path d="M667.82,519.27c-.18-.81,12-3.53,12.17-2.72.55,2.45-.41,5.41-1.25,8h0a1.34,1.34,0,0,1-1,.9l-4.1.92a1.35,1.35,0,0,1-1.28-.39h0S668.36,521.72,667.82,519.27Zm4.31,22.56c-.59,2.73-1.26,5.82-2.9,7.77-.54.65-9.11-7.26-8.52-8,1.64-2,4.46-3,7-4h0a.92.92,0,0,1,.92.15l3,2.46a1.59,1.59,0,0,1,.54,1.56Zm19,2.94c-2.36-1.07-4.31-3.58-6-5.79h0a1.6,1.6,0,0,1-.19-1.66l1.65-3.48c.17-.35.87-.61.87-.61,2.71-.21,5.78-.45,8.14.62.81.39-3.68,11.28-4.46,10.93ZM667.78,534.3c-2.63.4-5.61.85-8-.12-1-.4,3-12.07,3.8-11.75,2.34,1,4.36,3.49,6.14,5.72h0a1.48,1.48,0,0,1,.25,1.37l-1.27,3.94a1.21,1.21,0,0,1-1,.82h0ZM687,549.37c.1.86-12.24,2.6-12.34,1.77-.31-2.5.93-5.39,2-7.94h0a1.06,1.06,0,0,1,.76-.62l4.19-.86C682.17,541.6,686.66,546.88,687,549.37Zm7.83-21.28c-1.9,1.73-8.6,2.84-8.92,2.37l-2.34-3.36a1.23,1.23,0,0,1-.15-1.12h0c1-2.7,2-5.75,3.94-7.49.64-.57,8.23,8.88,7.44,9.6Zm-19.27,11.65c-1.88-2-4-4.28-4.55-6.73-.46-2.07,2.94-4.91,5.16-5.5,2-.38,6.6,1,7.06,3,.55,2.45-.46,5.16-1.31,7.77l-.65.59-5,1-.76-.2Z" style="fill:#ff0"/><path d="M620.59,516.24c.06-.83,13.91.2,13.85,1-.19,2.5-2.14,5-3.86,7.29h0a1.53,1.53,0,0,1-1.33.56l-4.67-.34a1.54,1.54,0,0,1-1.24-.76h0S620.4,518.74,620.59,516.24Zm-.53,24.57c-1.15,2.54-2.45,5.43-4.46,7-.67.52-7.38-9-6.66-9.58,2-1.57,5-2,7.64-2.43h0a.92.92,0,0,1,.86.34l2.41,3a1.59,1.59,0,0,1,.2,1.64Zm17.51,6.6c-2.08-1.54-3.46-4.4-4.67-6.93h0a1.6,1.6,0,0,1,.17-1.66l2.34-3c.24-.31,1-.41,1-.41,2.69.36,5.75.78,7.83,2.32C644.94,538.22,638.26,547.93,637.57,547.41Zm-20.73-15c-2.73.15-5.83.32-8-1-.9-.55,5.45-12.83,6.18-12.39,2.17,1.31,3.7,4.28,5.06,6.9h0a1.7,1.7,0,0,1,0,1.53L618,531.59a1.39,1.39,0,0,1-1.14.79h0ZM632,550.17c-.08.86-12.39,1.29-12.31.45.23-2.5,2-5.07,3.65-7.33h0a1.06,1.06,0,0,1,.88-.45h4.27C629.1,542.89,632.26,547.67,632,550.17Zm12.25-17.84c-2.22,1.3-9,1-9.22.45L633.49,529a1.23,1.23,0,0,1,.09-1.12h0c1.5-2.44,3.2-5.2,5.42-6.49.74-.44,6.22,10.4,5.29,10.94Zm-22,5.57c-1.41-2.35-2.34-4.26-2.36-6.77,0-2.12,4.32-3.77,6.2-4.29,1.89.49,6.25,2.32,6.27,4.44a9.63,9.63,0,0,1-1.61,6l-2.11,2-5-.28-.72-.31Z" style="fill:#ff0"/><path d="M563.72,519.14c-.26-.79,11.57-4.72,11.83-3.93.79,2.38.14,5.42-.44,8.11h0a1.34,1.34,0,0,1-.88,1l-4,1.33a1.35,1.35,0,0,1-1.31-.26h0S564.51,521.52,563.72,519.14Zm3.41,22.75c-1.17,2.53-2.5,5.41-4.52,7-.67.52-7.31-9.07-6.58-9.63,2-1.55,5-2,7.66-2.37h0a.92.92,0,0,1,.86.34l2.39,3a1.59,1.59,0,0,1,.19,1.64Zm17.77,8.83c-2.07-1.56-3.42-4.43-4.62-7h0a1.6,1.6,0,0,1,.18-1.66l2.36-3c.24-.31,1-.41,1-.41,2.69.39,5.74.83,7.81,2.38.71.55-6,10.21-6.73,9.69ZM564,533.52c-2.65.27-5.65.57-7.93-.51-1-.45,3.6-11.91,4.37-11.55,2.29,1.08,4.18,3.7,5.85,6h0a1.48,1.48,0,0,1,.19,1.38L565,532.72a1.21,1.21,0,0,1-1,.77h0Zm15.38,17.77c-.08.86-12.51-.13-12.43-1,.25-2.5,2.08-5,3.71-7.3h0a1.06,1.06,0,0,1,.88-.44l4.27.08c.63,0,3.86,6.16,3.61,8.66ZM593.6,536.4c-2.33,1.1-9.31.92-9.48.38l-1.26-3.9a1.23,1.23,0,0,1,.18-1.11h0c1.7-2.3,4.33-4.19,6-6C589.78,525.4,594.56,535.94,593.6,536.4Zm-15.67-7c1.26,2.44,2.68,5.21,2.53,7.71-.12,2.12-5,1.62-6.91,2-5.64-.86-6.07-.93-5.52-3a22.72,22.72,0,0,1,3.38-7.12l3.46-2.15,3,2.52Zm10.78-5.91c-1.8,1.74-4.68,2.57-7.22,3.3h0a1.44,1.44,0,0,1-1.49-.45l-2.38-2.79a1.93,1.93,0,0,1-.2-1c.83-2.54,1.77-5.41,3.57-7.15.62-.66,8.32,7.5,7.72,8.07Z" style="fill:#ff0"/><path id="Sun" d="M672.07,328.15c0,39-32.23,70.56-72,70.56s-72-31.59-72-70.56,32.23-70.56,72-70.56,72,31.59,72,70.56" style="fill:#fff"/><path id="Eagle" d="M534.25,504.1l2.23-64.54,11.78,9.37-.64,55.25Zm34.56-47.26,13.57,1.74-.52,45.59-13.32-.1Zm26.58-30h8.91l1,26.77c0,.53-.28,1-.65,1H595c-.37,0-.67-.44-.65-1Zm-15.61,26.72,4.36-27.73,8.35.56-2.15,27.8Zm-59.26-12.63L526,428l8,9.56-.51,9.92ZM565,451.32l7.44-26.91,8.9,1.42-6,27.25Zm-56.39-15.89,7.26-16,8.65,7-6.15,13.63Zm29.87.74,10.4-20,8.52,4-9.58,23.61Zm-42.54-3.59,8.73-21.43L514,417.8l-7.5,17.41ZM256.06,428.7l43.51-44.27,20.85,2.92-29.85,39.9ZM324,388l22.82,1.07-26,37.73-26.59.64Zm.87,38.82L351,389.16h22.28L348,426.1ZM463.56,429l14.64-30,10.65,3.78L477,429Zm-111-2.85L377,389.7l19.82.57L374.48,426ZM461.3,395.41l13.7,2.43-14.93,30.87L443.6,428Zm66.34,29.39,9.19-16.47,9,6.53-9.65,19.38Zm-11.18-9.67,10.12-16.26,8.07,7L525.74,422Zm68.06,7.33L588.28,404l6.63.5L592.68,423Zm12.65-17.6,6.29-.29,1.41,18.93-9.4-.18ZM562.4,418.09l8.15-19.15,6.37,2.33-6.94,19Zm-56.64-10.85,11.42-16,6.89,5.3-9.83,16.72Zm34.84-.81,10.9-18.32,7.52,5.21-9.87,19Zm-48-5.67,12.71-17.4,8.95,6-11.1,16.31Zm27.09-11.82,14.84-18.3,5.3,7.56-11.34,18Zm-58,2.29,14.56-19.86,13,3.56-13.59,18.74ZM440.13,388l-17.55-.48L439.1,366l16.42,1.45Zm69-7.33,18.59-21.57,5.25,8.45-15.72,18.83ZM354,385.49l25-25.85,17.68,1.26-23.62,24.51ZM115,401.94,99.58,379.18l99.11-38.82,15.49,13.53Zm186.45-21.52,32.8-26.12,17.13,2.08-29,27.08Zm193-8.06L523,346.73l3.21,9.46L506.86,378.7Zm-223.79,1.72,40.52-24.35L330,353l-32.85,26.58Zm207.66-6.49,25.52-25.21,15.25,4L491.33,371Zm-231-1.32L289.12,344l17.35,4.41L266.28,372.7Zm209.94-1.93,26.46-27.25,16.06,4.26-25.43,25.23ZM93.16,352.07l90.11-27,12,13L98.8,376ZM435,361.53l30.74-28.23,14.43,2.62-26.68,27.4Zm-22.85-2.37L444,329.79l17.26,2.52L430.13,360.8Zm-22-2.67,33.57-29.84,15.85,2.19L407.76,358ZM364,354.25l39.14-30.47,15.17,2-32.74,30.35ZM202.47,339.7l43.45-12.2,14.76,7.58L218.87,352.4ZM342.16,352l40-30.07,15.51,1.33L359,353.62Zm-46.64-10.2,45.61-23.08,14.49,1.14-41.69,26.07Zm-207-19.55,83.63-14,9.31,14.62-89,25.48Zm99.56,3.84,44-10,11.86,9L199.4,336.71Zm87,10.13,41.37-19.61,18.69,1.51-44.59,22.13Zm-19.55-7.91L300,312.69l12.52,2.81-41.3,19.58Zm-79.8-20.2,48-4.14,6.41,9.36-44.42,8.93Zm-76-14.39,68.49-2.28,2.77,14.2-82.4,13.6S88,306,88,303.33s7.5-9.48,11.78-9.6m177.82,5.33,5.82,6.4-48,8.48L227,303.61Zm-106.2-7.34,45.17-1.2L221,301l-46.74,3.83Zm53.46,8.73L219.66,290l54.59-1.13,2.22,7.48Zm361.2,158,12,.35v45.37H585.48Zm-33.88-7,13,4.69-.81,48H551.55ZM378.91,318.25c7.33.47,0,0,8,.63,2.7.21,14.94,1.62,19,2,12.88,1.33,22.11,2.69,30.43,4,13.83,2.2,23.87,3.53,28.31,4.39,18.79,3.62,14,2.57,18.79,3.62,11.88,2.6,19.3,5.06,19.3,5.06,12.37,3.63,16.83,5.23,20.43,6.15a35.56,35.56,0,0,1-.47-4.67l-.12-5.59v-2.18c.07-4.73,0-4.5.27-9.31,0,.14-.21,4.37.19-1.66a127.65,127.65,0,0,1,2.53-14.85,63.11,63.11,0,0,0-6.3-3.24c-6.15-2.57-9.82-3.88-9.82-3.88-14.58-4.43-19.5-5.3-19.5-5.3-7-1.52-15.61-3.28-22.71-4.49-12.23-2.09-29.58-3.93-32.84-4.08-26.46-1.25-26.47-1-36.84-1.39-17.37-.58-17.37-.58-29.86-.27-6.59.17-20.46.57-31.86.91,0,0-19.16,1-24.35,1.09a170.63,170.63,0,0,0-22.13,1.88c-12.21,1.73-11.94,1.73-11.94,1.73.38,3.68,3.62,10,6.12,12.37,6.5,6.18,14,8,19.15,9.08,17.07,3.71,17.89,3.53,28.84,4.3,6.23.44,12.65,1.25,15.37,1.46,6.47.51,23.55,1.62,23.55,1.62M443,392.58l14.38,1.76-17.1,33.17-18.22-.44Zm1.67-4,14.93-20,12.91,1.57-14.71,20Zm-43.43,37.15,21-33.82,16.84.57L419.44,426.3Zm-23.31.18,23.49-35.59,17.19.68L397,425.9Zm-51-41.67,28.47-27L374,359.3l-25,26Zm74.85,2.54,19.73-22.72,13.28,1.26-16.87,21.93Zm-23.24-1.14L401.27,362l15.24,1.53-20.19,22.81Zm194.71,35.2,5.93-18.74,6.43,1.34-4,18.67Zm-362.6,11.74-60-.58,93-62.53,20.25,7ZM479.92,430l11.68-26,11.17,5.2L493.25,432Zm-1.29-35,13.8-19,10.49,5.38-13.29,17.49ZM222.15,354.53,264,336.83l20.52,5.86-41,22.34Zm96.38-6.88L362.11,320l15.52,1-40,29.6Zm233,66.2,9.56-19.29,7.1,3.28-8.41,19.53Zm-.58,32.5,9.59-25.53,8.6,2.81-7.69,26.89ZM215.46,432.7l51.85-54.87,27.8,5.68L251.61,429ZM240.58,368l-93.13,62.52-30.14-25.61,99.43-48.72L240.58,368ZM531,398l10.81-17.77,7.25,6.58-10.33,17.67ZM239.31,317,286,307.83l8.82,3.58-42.53,15Z" style="fill:#ff0"/><path id="Eagle-2" d="M652.38,504.17l-.64-55.25,11.78-9.37,2.23,64.54Zm-20.92-.1-13.32.1-.52-45.59,13.57-1.74Zm-25.83-50.45c0,.53-.28,1-.65,1h-9.64c-.37,0-.67-.44-.65-1l1-26.77h8.91Zm4,.58-2.15-27.8,8.35-.56,4.36,27.73Zm56.84-6.69-.51-9.92,8-9.56,5.52,12.9Zm-41.91,5.57-6-27.25,8.9-1.42L635,451.32Zm57-13-6.15-13.63,8.65-7,7.26,16Zm-29.45,3.68-9.58-23.61,8.52-4,10.4,20Zm41.35-8.52L686,417.8l9.31-6.65L704,432.58Zm215.91-8-29.85-39.9,20.85-2.92,43.51,44.27Zm-3.63.2-26.59-.64-26-37.73L876,388ZM852,426.11l-25.31-36.94H849l26.15,37.68Zm-129,2.94L711.2,402.88l10.65-3.78,14.64,30Zm102.44-3-22.34-35.77L823,389.7l24.52,36.5Zm-69.12,2-16.47.69L725,397.84l13.78-2.41Zm-92.56,6.24-9.65-19.38,9-6.53,9.19,16.47ZM674.26,422l-8.84-16,8.07-7,10.12,16.26Zm-66.94,1-2.22-18.5,6.63-.5,3.83,18.48Zm-2.71.38-9.4.18,1.41-18.93,6.29.29Zm25.4-3.07-6.94-19,6.37-2.33,8.15,19.15Zm55.75-7-9.83-16.72,6.89-5.3,11.42,16Zm-34.91-.85-9.87-19,7.52-5.21,10.9,18.32Zm46-6.64-11.1-16.31,9-6,12.71,17.4Zm-25.32-9.57-11.34-18,5.3-7.56L680.33,389Zm52.81-2.49L710.75,375l13-3.56,14.56,19.86Zm20.17-26.18L760.9,366l16.52,21.44-17.55.48Zm-61.73,18.86L667,367.52l5.25-8.45,18.59,21.57ZM827,385.5,803.3,360.9l17.7-1.26,25,25.85ZM985.86,354l15.49-13.53,99.11,38.82L1085,402Zm-108.3,29.47-29-27.08,17.13-2.08,32.8,26.12ZM693.14,378.7l-19.41-22.51,3.21-9.46,28.58,25.63Zm209.74.86L870,353l18.77-3.25,40.52,24.35ZM708.67,371l-27.79-24.63,15.25-4,25.52,25.21Zm225,1.72-40.19-24.29,17.4-4.43,41.79,22.25Zm-208.08-6.13L700.2,341.35l16.06-4.26,26.46,27.25ZM1101.2,376l-96.51-37.92,12-13,90.11,27ZM746.51,363.33l-26.68-27.4,14.43-2.62L765,361.53Zm23.34-2.54L738.67,332.3l17.26-2.52,31.9,29.37ZM792.24,358l-31.86-29.12,15.85-2.19L809.8,356.5Zm22.15-1.84-32.74-30.35,15.17-2L836,354.25Zm166.75-3.72-41.81-17.32,14.76-7.58,43.45,12.2Zm-140.09,1.22L802.33,323.3,817.84,322l40,30.07Zm45-7.69L844.36,319.9l14.49-1.14,45.61,23.08Zm221.53,2.47-89-25.48,9.31-14.62,83.63,14Zm-107-11.64L956,325.18l11.86-9,44,10Zm-91.18,3.49-44.59-22.13,18.69-1.51,41.37,19.61Zm19.36-5.18-41.3-19.58L900,312.69l44.45,15.63Zm85.52-12.79-44.42-8.93,6.41-9.36,48,4.14Zm85.94-28.55c4.28.12,11.78,6.91,11.78,9.6s-.64,15.91-.64,15.91l-82.4-13.6,2.77-14.2,68.49,2.28M973,303.61l-8.4,10.33-48-8.48,5.82-6.4Zm52.73,1.21L979,301l4.46-10.47,45.17,1.2Zm-102.19-8.5,2.22-7.48L980.34,290l-5.19,10.48Zm-309,207.84H601.93V458.8l12-.35Zm33.93,0H635.58l-.81-48,13-4.69Zm181-186.49S846.55,316.56,853,316c2.72-.21,9.15-1,15.37-1.46,11-.77,11.78-.59,28.84-4.3,5.19-1.13,12.64-2.9,19.15-9.08,2.5-2.38,5.75-8.69,6.12-12.37,0,0,.27,0-11.94-1.73a170.63,170.63,0,0,0-22.13-1.88c-5.19-.1-24.35-1.09-24.35-1.09-11.41-.34-25.28-.75-31.86-.91-12.49-.31-12.49-.31-29.86.27-10.37.35-10.38.14-36.84,1.39-3.26.15-20.61,2-32.84,4.08-7.11,1.21-15.67,3-22.71,4.49,0,0-4.92.87-19.5,5.3,0,0-3.68,1.31-9.82,3.88a63.11,63.11,0,0,0-6.3,3.24c.48,2.38,2.22,10.26,2.53,14.85.4,6,.2,1.8.19,1.66.24,4.82.19,4.59.27,9.31v2.18l-.12,5.59a35.56,35.56,0,0,1-.47,4.67c3.59-.92,8-2.52,20.43-6.15,0,0,7.42-2.46,19.3-5.06,4.77-1,0,0,18.79-3.62,4.44-.86,14.48-2.19,28.31-4.39,8.32-1.32,17.55-2.69,30.43-4,4.1-.42,16.34-1.83,19-2,8-.63.71-.16,8-.63m-43.1,108.78-18.22.44-17.1-33.17L757,392.58Zm-35.73-36.91-14.71-20,12.91-1.57,14.93,20Zm38.4,36.15-19.64-33.82,16.84-.57,21,33.82ZM803,425.9,781.36,391l17.19-.68L822,425.92Zm48-40.59-25-26,18.6-2.06,28.47,27Zm-68.93,2L765.2,365.38l13.28-1.26,19.73,22.72Zm21.62-1L783.5,363.55,798.73,362l22.71,23.68Zm-185.32,35.8-4-18.67,6.43-1.34,5.93,18.74ZM936.09,376.5l20.25-7,93,62.53-60,.54ZM706.75,432l-9.53-22.81,11.17-5.2,11.68,26Zm3.62-33.18-13.29-17.49L707.57,376l13.8,19ZM956.45,365l-41-22.34L936,336.83l41.84,17.71Zm-94.12-14.39-40-29.6,15.52-1,43.58,27.61Zm-222.1,66.76-8.41-19.53,7.1-3.28,9.56,19.29Zm-1.68,33.15-7.69-26.89,8.6-2.81L649,446.35ZM948.39,429l-43.5-45.45,27.8-5.68,51.85,54.87Zm11-61h0l23.85-11.85,99.43,48.72-30.14,25.61ZM661.23,404.49,650.9,386.82l7.25-6.58L669,398Zm286.5-78.07-42.53-15,8.82-3.58L960.69,317Z" style="fill:#ff0"/></g></svg>